<?xml version="1.0" encoding="iso-8859-1"?>
<!-- Generator: Adobe Illustrator 21.0.0, SVG Export Plug-In . SVG Version: 6.00 Build 0)  -->
<svg version="1.1" id="Layer_1" xmlns="http://www.w3.org/2000/svg" xmlns:xlink="http://www.w3.org/1999/xlink" x="0px" y="0px"
	 viewBox="0 0 100.842 100.353" style="enable-background:new 0 0 100.842 100.353;" xml:space="preserve">
<g>
	<path fill="#0f965b" d="M14.767,52.552c-4.517,0-8.192,3.868-8.192,8.623c0,2.487,0.985,8.271,10.111,8.271H16.8c0.81,0,1.467-0.656,1.467-1.468
		c0-0.811-0.656-1.468-1.468-1.468h-0.114c-4.762,0-7.176-1.795-7.176-5.336c0-3.137,2.358-5.688,5.257-5.688
		c1.25,0,2.481,0.557,3.464,1.566c1.222,1.255,1.896,3.029,1.847,4.865c-0.022,0.81,0.618,1.484,1.428,1.506
		c0.796,0.019,1.484-0.618,1.506-1.428c0.069-2.624-0.907-5.171-2.679-6.99C18.793,53.423,16.815,52.552,14.767,52.552z"/>
	<path fill="#0f965b" d="M99.668,45.063c-0.205-0.589-0.761-0.983-1.385-0.983H57.705c0.885-2.171,1.243-4.75,1.243-6.718
		c0-7.962-5.562-13.74-13.225-13.74c-2.895,0-5.741,0.984-8.06,2.778c-0.093,0.042-0.183,0.095-0.267,0.157L6.889,49.06
		c-0.134,0.099-0.24,0.219-0.33,0.349c-3.32,2.737-5.467,6.996-5.467,11.785c0,8.059,6.062,14.647,13.616,14.931
		c0.157,0.058,0.326,0.09,0.503,0.09l46.231,0.162c0.002,0,0.003,0,0.005,0c0.333,0,0.656-0.112,0.916-0.319l36.836-29.363
		C99.685,46.307,99.873,45.652,99.668,45.063z M38.832,29.147c0.137-0.056,0.265-0.131,0.383-0.228
		c1.875-1.546,4.127-2.362,6.509-2.362c5.963,0,10.29,4.544,10.29,10.805c0,2.359-0.598,5.552-1.895,7.179L29.184,63.429
		c0.104-0.736,0.157-1.481,0.157-2.235c0-8.097-6.119-14.696-13.72-14.925L38.832,29.147z M60.935,73.44l-45.233-0.158
		c-0.153-0.053-0.316-0.082-0.486-0.082c-6.17,0-11.189-5.386-11.189-12.006c0-6.624,5.019-12.013,11.188-12.013
		s11.189,5.388,11.189,12.012c0,1.79-0.363,3.522-1.077,5.145c-0.07,0.16-0.11,0.326-0.121,0.49
		c-0.113,0.423-0.037,0.89,0.248,1.266c0.489,0.647,1.41,0.773,2.057,0.284l28.202-21.363h38.374L60.935,73.44z"/>
</g>
</svg>
