<?xml version="1.0" encoding="iso-8859-1"?>
<!-- Generator: Adobe Illustrator 21.0.0, SVG Export Plug-In . SVG Version: 6.00 Build 0)  -->
<svg version="1.1" id="Layer_1" xmlns="http://www.w3.org/2000/svg" xmlns:xlink="http://www.w3.org/1999/xlink" x="0px" y="0px"
	 viewBox="0 0 100.355 100.352" style="enable-background:new 0 0 100.355 100.352;" xml:space="preserve">
<g>
	<path d="M50.451,8.644c-23.062,0-41.825,18.761-41.825,41.82c0,23.066,18.763,41.832,41.825,41.832S92.276,73.53,92.276,50.464
		C92.276,27.405,73.513,8.644,50.451,8.644z M50.451,89.296c-21.408,0-38.825-17.42-38.825-38.832
		c0-21.406,17.417-38.82,38.825-38.82s38.825,17.415,38.825,38.82C89.276,71.876,71.859,89.296,50.451,89.296z"/>
	<path d="M34.494,42.67c-4.621,0-8.667,2.947-10.069,7.334l2.857,0.913c1.003-3.138,3.901-5.247,7.212-5.247
		c3.312,0,6.21,2.112,7.212,5.255l2.858-0.911C43.164,45.622,39.117,42.67,34.494,42.67z"/>
	<path d="M66.408,42.67c-4.621,0-8.667,2.947-10.07,7.334l2.857,0.913c1.003-3.138,3.902-5.247,7.212-5.247
		c3.304,0,6.203,2.113,7.213,5.259l2.856-0.918C75.066,45.62,71.02,42.67,66.408,42.67z"/>
	<path d="M50.451,25.511c-3.005,0-5.45,2.445-5.45,5.45s2.445,5.449,5.45,5.449s5.449-2.444,5.449-5.449
		S53.456,25.511,50.451,25.511z M50.451,33.41c-1.351,0-2.45-1.099-2.45-2.449s1.099-2.45,2.45-2.45s2.449,1.099,2.449,2.45
		S51.802,33.41,50.451,33.41z"/>
</g>
</svg>
