<?xml version="1.0" encoding="iso-8859-1"?>
<!-- Generator: Adobe Illustrator 21.0.0, SVG Export Plug-In . SVG Version: 6.00 Build 0)  -->
<svg version="1.1" id="Layer_1" xmlns="http://www.w3.org/2000/svg" xmlns:xlink="http://www.w3.org/1999/xlink" x="0px" y="0px"
	 viewBox="0 0 100.353 100.353" style="enable-background:new 0 0 100.353 100.353;" xml:space="preserve">
<g>
	<path d="M20.998,69.806c-0.311,0-0.623-0.096-0.892-0.294C9.8,61.88,6.341,42.199,6.199,41.365c-0.139-0.816,0.41-1.591,1.226-1.73
		c0.816-0.139,1.591,0.409,1.731,1.226c0.033,0.192,3.401,19.329,12.735,26.241c0.666,0.493,0.806,1.433,0.313,2.098
		C21.91,69.596,21.457,69.806,20.998,69.806z"/>
	<path d="M62.29,76.427c-3.232,0-6.145-0.791-8.428-2.421c-0.674-0.481-0.831-1.418-0.349-2.092
		c0.481-0.675,1.417-0.832,2.092-0.349c5.017,3.582,14.48,1.863,22.503-4.086c7.744-5.738,11.385-19.901,12.417-24.657
		c-4.774-0.392-19.007-1.018-26.84,4.443c-0.68,0.475-1.614,0.307-2.088-0.373s-0.307-1.615,0.373-2.088
		c10.412-7.257,29.725-4.905,30.542-4.802c0.406,0.052,0.773,0.267,1.016,0.595c0.244,0.329,0.342,0.743,0.273,1.146
		c-0.143,0.834-3.608,20.515-13.906,28.146C74.124,74.168,67.752,76.427,62.29,76.427z"/>
	<path d="M37.779,76.004c-5.52,0-11.976-2.269-17.673-6.493C9.801,61.88,6.342,42.199,6.2,41.364
		c-0.069-0.403,0.03-0.817,0.273-1.145c0.244-0.329,0.611-0.543,1.017-0.595c0.795-0.101,19.63-2.395,30.125,4.523
		c0.691,0.456,0.883,1.386,0.427,2.078c-0.456,0.691-1.385,0.883-2.078,0.427c-7.897-5.206-21.785-4.593-26.488-4.208
		c1.03,4.754,4.667,18.918,12.417,24.656c7.683,5.697,16.687,7.538,21.896,4.48c0.714-0.421,1.634-0.18,2.053,0.534
		s0.181,1.634-0.534,2.053C43.198,75.406,40.611,76.004,37.779,76.004z"/>
	<path d="M26.392,43.048c-0.11,0-0.223-0.012-0.334-0.038c-0.808-0.184-1.313-0.988-1.129-1.795
		c1.538-6.752,3.862-12.024,3.96-12.245c0.166-0.374,0.477-0.663,0.862-0.802s0.809-0.115,1.175,0.066
		c0.217,0.108,5.394,2.689,10.913,6.92c0.658,0.504,0.782,1.446,0.278,2.103c-0.504,0.658-1.445,0.782-2.103,0.278
		c-3.597-2.757-7.108-4.817-8.996-5.856c-0.785,1.999-2.164,5.807-3.165,10.202C27.695,42.577,27.076,43.048,26.392,43.048z"/>
	<path d="M73.08,43.048c-0.684,0-1.302-0.471-1.461-1.166c-0.987-4.319-2.374-7.763-3.177-9.559
		c-1.868,1.027-5.426,3.106-9.072,5.901c-0.658,0.503-1.599,0.379-2.103-0.278s-0.379-1.599,0.278-2.103
		c5.519-4.231,10.695-6.815,10.913-6.923c0.728-0.361,1.612-0.077,1.993,0.643c0.103,0.195,2.538,4.848,4.094,11.649
		c0.185,0.808-0.32,1.612-1.128,1.797C73.303,43.036,73.191,43.048,73.08,43.048z"/>
	<path d="M49.561,75.876c-8.646,0-15.417-10.49-15.417-23.882c0-12.815,13.749-27.321,14.334-27.933
		c0.566-0.591,1.601-0.591,2.167,0c0.585,0.611,14.334,15.117,14.334,27.933C64.979,65.386,58.207,75.876,49.561,75.876z
		 M49.562,27.336c-3.206,3.661-12.418,15.021-12.418,24.658c0,11.514,5.57,20.882,12.417,20.882s12.417-9.368,12.417-20.882
		C61.979,42.346,52.768,30.995,49.562,27.336z"/>
</g>
</svg>
