<?xml version="1.0" encoding="iso-8859-1"?>
<!-- Generator: Adobe Illustrator 21.0.0, SVG Export Plug-In . SVG Version: 6.00 Build 0)  -->
<svg version="1.1" id="Layer_1" xmlns="http://www.w3.org/2000/svg" xmlns:xlink="http://www.w3.org/1999/xlink" x="0px" y="0px"
	 viewBox="0 0 100.353 100.352" style="enable-background:new 0 0 100.353 100.352;" xml:space="preserve">
<g>
	<path fill="#0f965b" d="M50.464,9.725C50.382,9.711,50.3,9.7,50.215,9.7c-0.12,0-0.24,0.007-0.36,0.01c-0.127-0.001-0.253-0.01-0.381-0.01
		C26.91,9.7,8.553,28.057,8.553,50.621c0,22.565,18.357,40.924,40.921,40.924c22.562,0,40.917-18.358,40.917-40.924
		C90.391,28.389,72.569,10.254,50.464,9.725z M11.552,50.621c0-16.41,10.479-30.414,25.095-35.684
		c-4.509,3.966-7.42,9.806-7.42,16.196c0,11.532,9.352,20.922,20.87,20.987c0.04,0.003,0.08,0.005,0.12,0.005
		c9.919,0,17.99,8.069,17.99,17.987c0,9.819-8.754,18.432-18.733,18.432C28.563,88.545,11.552,71.532,11.552,50.621z M64.194,85.57
		c4.263-3.968,7.013-9.521,7.013-15.457c0-11.532-9.352-20.922-20.87-20.987c-0.04-0.003-0.08-0.005-0.12-0.005
		c-9.919,0-17.99-8.069-17.99-17.988c0-9.91,8.105-18.284,17.75-18.421c20.676,0.272,37.414,17.167,37.414,37.909
		C87.391,66.314,77.811,79.811,64.194,85.57z"/>
	<path fill="#0f965b" d="M56.061,75.164c0-3.218-2.622-5.835-5.845-5.835s-5.845,2.618-5.845,5.835c0,3.225,2.622,5.849,5.845,5.849
		S56.061,78.389,56.061,75.164z M47.372,75.164c0-1.563,1.276-2.835,2.845-2.835s2.845,1.272,2.845,2.835
		c0,1.571-1.276,2.849-2.845,2.849S47.372,76.734,47.372,75.164z"/>
	<path fill="#0f965b" d="M50.217,20.096c-3.223,0-5.845,2.622-5.845,5.844c0,3.225,2.622,5.849,5.845,5.849s5.845-2.624,5.845-5.849
		C56.061,22.717,53.439,20.096,50.217,20.096z M50.217,28.789c-1.568,0-2.845-1.278-2.845-2.849c0-1.568,1.276-2.844,2.845-2.844
		s2.845,1.276,2.845,2.844C53.061,27.51,51.785,28.789,50.217,28.789z"/>
</g>
</svg>
